<?xml version="1.0" encoding="utf-8"?>
<!-- Generator: Adobe Illustrator 22.1.0, SVG Export Plug-In . SVG Version: 6.00 Build 0)  -->
<svg version="1.1" id="Layer_1" xmlns="http://www.w3.org/2000/svg" xmlns:xlink="http://www.w3.org/1999/xlink" x="0px" y="0px"
	 viewBox="0 0 200 180" style="enable-background:new 0 0 200 180;" xml:space="preserve">
<style type="text/css">
	.st0{fill:#4D5153;}
	.st1{fill:#ED1C5A;}
	.st2{fill:url(#SVGID_1_);}
	.st3{fill:#B61E46;}
	.st4{fill:#FFFFFF;}
	.st5{fill:#39B54A;}
</style>
<g>
	<path class="st0" d="M114.3,67.7c-0.9-0.9-2-1.6-3.1-2.1c-1.2-0.5-2.5-0.8-3.9-0.8c-1.6,0-3.1,0.4-4.5,1.1c-1.1,0.6-2.1,1.4-3,2.4
		c-0.8-1-1.8-1.8-3-2.4c-1.4-0.7-2.9-1.1-4.5-1.1c-1.3,0-2.6,0.3-3.8,0.8c-1.2,0.5-2.3,1.2-3.1,2.1c-0.9,0.9-1.6,1.9-2.1,3.1
		c-0.5,1.2-0.8,2.5-0.8,3.9v9.9h4.8v-9.9c0-0.7,0.1-1.4,0.4-2c0.3-0.6,0.6-1.1,1.1-1.6c0.5-0.5,1-0.8,1.6-1.1c0.6-0.3,1.3-0.4,2-0.4
		c0.7,0,1.4,0.1,2,0.4c0.6,0.3,1.2,0.6,1.6,1.1c0.5,0.5,0.8,1,1.1,1.6c0.3,0.6,0.4,1.3,0.4,2v9.9h4.8v-9.9c0-0.7,0.1-1.4,0.4-2
		c0.3-0.6,0.6-1.1,1.1-1.6c0.5-0.5,1-0.8,1.6-1.1c0.6-0.3,1.3-0.4,2-0.4c0.7,0,1.4,0.1,2,0.4c0.6,0.3,1.2,0.6,1.6,1.1
		c0.5,0.5,0.8,1,1.1,1.6c0.3,0.6,0.4,1.3,0.4,2v9.9h4.8v-9.9c0-1.4-0.3-2.7-0.8-3.9C116,69.7,115.2,68.6,114.3,67.7"/>
	<path class="st0" d="M135.9,67.7c-0.9-0.9-1.9-1.6-3.1-2.1c-1.2-0.5-2.5-0.8-3.9-0.8c-1.3,0-2.6,0.3-3.8,0.8
		c-1.2,0.5-2.3,1.2-3.2,2.1c-0.9,0.9-1.6,2-2.1,3.1c-0.5,1.2-0.8,2.5-0.8,3.9c0,1.3,0.3,2.6,0.8,3.8c0.5,1.2,1.2,2.3,2.1,3.2
		c0.9,0.9,2,1.6,3.2,2.1c1.2,0.5,2.5,0.8,3.8,0.8h9.9v-9.9c0-1.4-0.3-2.7-0.8-3.9C137.6,69.7,136.8,68.6,135.9,67.7 M134,79.8h-5
		c-0.7,0-1.4-0.1-2-0.4c-0.6-0.3-1.2-0.6-1.6-1.1c-0.5-0.5-0.8-1-1.1-1.6c-0.3-0.6-0.4-1.3-0.4-2c0-0.7,0.1-1.4,0.4-2
		c0.3-0.6,0.6-1.1,1.1-1.6c0.5-0.5,1-0.8,1.6-1.1c0.6-0.3,1.3-0.4,2-0.4c0.7,0,1.4,0.1,2,0.4c0.6,0.3,1.1,0.6,1.6,1.1
		c0.5,0.5,0.8,1,1.1,1.6c0.3,0.6,0.4,1.3,0.4,2V79.8z"/>
	<path class="st0" d="M157.5,67.8c-0.9-0.9-2-1.6-3.1-2.1c-1.2-0.5-2.5-0.8-3.9-0.8c-1.3,0-2.6,0.3-3.8,0.8
		c-1.2,0.5-2.2,1.2-3.1,2.1c-0.9,0.9-1.6,1.9-2.1,3.1c-0.5,1.2-0.8,2.5-0.8,3.9V96c2.7,0,4.8-2.2,4.8-4.8v-6.5h5
		c1.4,0,2.7-0.3,3.9-0.8c1.2-0.5,2.2-1.2,3.1-2.1c0.9-0.9,1.6-2,2.1-3.2c0.5-1.2,0.8-2.5,0.8-3.8c0-1.4-0.3-2.7-0.8-3.9
		C159.1,69.8,158.4,68.7,157.5,67.8 M155.2,76.8c-0.3,0.6-0.6,1.2-1.1,1.6c-0.4,0.5-1,0.8-1.6,1.1c-0.6,0.3-1.3,0.4-2,0.4h-5v-5.1
		c0-0.7,0.1-1.3,0.4-2c0.3-0.6,0.6-1.2,1.1-1.6c0.5-0.5,1-0.8,1.6-1.1c0.6-0.3,1.3-0.4,2-0.4c0.7,0,1.4,0.1,2,0.4
		c0.6,0.3,1.2,0.6,1.6,1.1c0.5,0.5,0.8,1,1.1,1.6c0.3,0.6,0.4,1.3,0.4,2C155.6,75.5,155.5,76.2,155.2,76.8"/>
	<path class="st1" d="M175.7,58c-1.6,0-2.8,1.3-2.8,2.8c0,1.6,1.3,2.8,2.8,2.8c1.6,0,2.8-1.3,2.8-2.8C178.5,59.3,177.3,58,175.7,58"
		/>
	<path class="st1" d="M170.1,76.1c-0.4-0.4-0.9-0.8-1.5-1c-0.6-0.2-1.2-0.4-1.8-0.4c-0.6,0-1.3,0.1-1.8,0.4c-0.6,0.2-1.1,0.6-1.5,1
		c-0.4,0.4-0.8,0.9-1,1.5c-0.2,0.6-0.4,1.2-0.4,1.8v4.7h4.6c0.6,0,1.2-0.1,1.8-0.4c0.6-0.2,1.1-0.6,1.5-1c0.4-0.4,0.8-0.9,1-1.5
		c0.2-0.6,0.4-1.2,0.4-1.8c0-0.7-0.1-1.3-0.4-1.8C170.9,77,170.5,76.5,170.1,76.1"/>
	<rect x="173.3" y="64.8" class="st0" width="4.8" height="19.8"/>
	<path class="st0" d="M189.8,64.8c-1.3,0-2.6,0.3-3.8,0.8c-1.2,0.5-2.3,1.2-3.2,2.1c-0.9,0.9-1.6,1.9-2.1,3.1
		c-0.5,1.2-0.8,2.5-0.8,3.9v9.9h4.9v-9.9c0-0.7,0.1-1.4,0.4-2c0.3-0.6,0.6-1.1,1.1-1.6c0.5-0.5,1-0.8,1.6-1.1c0.6-0.3,1.3-0.4,2-0.4
		h0.4c2.7,0,4.8-2.2,4.8-4.8H189.8z"/>
</g>
<g>
	<linearGradient id="SVGID_1_" gradientUnits="userSpaceOnUse" x1="17.5892" y1="38.5006" x2="60.4354" y2="104.1862">
		<stop  offset="0" style="stop-color:#F16631"/>
		<stop  offset="1" style="stop-color:#EC1D72"/>
	</linearGradient>
	<path class="st2" d="M78.1,75.2c0,11-4.9,20.9-12.6,27.6l-24,24L17,102.3c-2.8-2.5-5.2-5.5-7.1-8.8c-1.7-2.9-2.9-6-3.8-9.2
		c-0.7-2.9-1.1-5.9-1.1-9v-0.1c0-3.4,0.5-6.8,1.4-9.9c0,0,0,0,0,0c0-0.1,0-0.1,0-0.2c3.4-11.6,12.3-20.8,23.7-24.6c0,0,0,0,0,0
		c0.1,0,0.2-0.1,0.3-0.1c0,0,0.1,0,0.1,0c0.1,0,0.1,0,0.2-0.1c0.1,0,0.2-0.1,0.3-0.1c0,0,0.1,0,0.1,0c3.1-0.9,6.5-1.4,9.9-1.5
		c0,0,0.1,0,0.1,0c0.1,0,0.2,0,0.2,0c0,0,0,0,0.1,0c0,0,0.1,0,0.1,0c0.2,0,0.4,0,0.7,0c0,0,0,0,0,0C62.1,39.1,78.1,55.3,78.1,75.2z"
		/>
	<g>
		<path class="st3" d="M70.6,71.2c-0.3-0.2-0.5-0.5-0.8-0.7c-1.7-1.3-3.8-2-6-2c-0.3,0-0.7,0-1,0.1c0.5-0.4,1-0.9,1.4-1.4
			C63.6,67,63,67,62.4,67c-0.3,0-0.7,0-1,0.1c2.4-1.9,3.7-5,3.4-8.3c-0.2-1.6-0.7-3-1.5-4.3c-0.2-0.2-0.4-0.3-0.6-0.5
			c-1.7-1.3-3.9-2.1-6.1-2.1c-0.3,0-0.7,0-1,0.1c-3,0.3-5.6,1.9-7.1,4.2c0-0.8-0.1-1.6-0.3-2.4v0c-0.3-1-0.8-2-1.4-2.9
			c-0.7-1-1.6-1.8-2.6-2.5c-1.6-1-3.4-1.5-5.2-1.5c-0.7,0-1.4,0.1-2,0.2c-2.5,0.5-4.7,2-6.1,4.1c-1.4,2.1-1.9,4.6-1.3,7.1
			c0.1,0.3,0.2,0.7,0.3,1c-0.1-0.1-0.3-0.2-0.4-0.3c-1.7-1.1-3.6-1.8-5.6-1.8c-1,0-2,0.2-3,0.5c-2.5,0.8-4.5,2.4-5.6,4.7
			c-0.6,1.2-1,2.4-1,3.7c0.1,0.7,0.2,1.3,0.4,1.9c0.6,1.9,1.8,3.6,3.5,4.7c0.7,0.5,1.4,0.9,2.1,1.1c-0.6,0.1-1.1,0.3-1.7,0.5
			c0.6,0.4,1.2,0.7,1.9,0.9c-1.2,0.3-2.3,0.7-3.3,1.4c-1.7,1.1-2.9,2.6-3.6,4.4c-0.3,0.9-0.5,1.8-0.6,2.6c0.1,1.1,0.3,2.1,0.8,3.1
			c1,2.3,2.9,4.1,5.2,5c1.1,0.4,2.2,0.6,3.4,0.6c1.7,0,3.3-0.4,4.7-1.3c-0.3,0.6-0.6,1.3-0.7,2c0.4-0.2,0.7-0.3,1.1-0.5
			c-0.9,1.8-1.2,3.8-0.9,5.8c0.2,1,0.6,2.1,1.1,3.1c1.3,2.2,3.4,3.7,5.9,4.4c0.8,0.2,1.7,0.3,2.5,0.3c1.7,0,3.4-0.4,4.8-1.3
			c2.6-1.5,4.2-3.9,4.7-6.6c0,0,0-0.1,0-0.1c0.1,0.1,0.1,0.2,0.2,0.3c1.4,2.6,3.9,4.6,7.1,5.1c0.5,0.1,1,0.1,1.5,0.1
			c2,0,4-0.6,5.7-1.8c2.1-1.5,3.5-3.6,3.9-6.1c0.5-3.3-0.7-6.5-3-8.6c-0.4-0.3-0.8-0.6-1.2-0.9c0.2,0.1,0.5,0.2,0.8,0.3
			c1.1,0.4,2.3,0.7,3.6,0.7c2.6,0,5-1,6.8-2.7c1.8-1.8,2.8-4.1,2.8-6.6C73.4,75.3,72.4,73,70.6,71.2z M54.7,52.8c0.2,0,0.5,0,0.7,0
			c1.6,0,3.1,0.5,4.4,1.6c0.6,0.5,1.2,1.1,1.6,1.8c1.3,1.2,2.1,2.7,2.3,4.4c0.4,3.8-2.5,7.3-6.4,7.7l-2.5,0.3l0.5,4.8
			c0,0.1,0,0.2,0,0.2l2.1-2.1c1.4-1.4,3.2-2.1,5-2.1c1.8,0,3.6,0.7,5,2.1c0.3,0.3,0.5,0.6,0.7,0.9c0.3,0.2,0.5,0.4,0.7,0.6
			c1.4,1.3,2.1,3.1,2.1,4.9c0,1.9-0.7,3.6-2.1,4.9c-1.4,1.4-3.2,2-5.1,2c-1.8,0-3.7-0.7-5.1-2L56.9,81l-3.5,3.4
			c-0.2,0.2-0.4,0.3-0.7,0.5c-0.5,0.3-1,0.4-1.6,0.4c-0.8,0-1.7-0.3-2.3-0.9l-1-0.9l0.3-0.3c-0.1-0.1-0.2-0.2-0.3-0.2L46.9,82l2-2
			c0-0.1,0.1-0.1,0.1-0.2l3.1-3.1l-1.1,0.1l-0.2-1.6L50,75.3l-0.3-2.9c0-0.1,0-0.1,0-0.2l-1.2-11.8C48.1,56.6,50.9,53.2,54.7,52.8z
			 M57.6,70.6C57.6,70.6,57.6,70.6,57.6,70.6L57.6,70.6L57.6,70.6C57.6,70.6,57.6,70.6,57.6,70.6z M46.9,61.4L46.9,61.4L46.9,61.4
			C46.9,61.4,46.9,61.4,46.9,61.4C46.9,61.4,46.9,61.4,46.9,61.4z M32.3,50.9c1-1.6,2.6-2.7,4.4-3c0.5-0.1,1-0.2,1.5-0.2
			c1.3,0,2.7,0.4,3.8,1.1c1.3,0.8,2.2,2,2.7,3.4c1.7,2.3,1.8,5.4,0.2,7.9L44,61.4l2.8,1.8c0.2,0.1,0.4,0.3,0.6,0.5
			c0.3,0.4,0.5,0.8,0.7,1.2c0.1,0.1,0.2,0.2,0.3,0.3c0.9,1.1,1.1,2.6,0.3,3.8l-0.7,1.1l-2.5-1.6c-0.1,0-0.1-0.1-0.2-0.1l-10.2-6.4
			c-1.7-1.1-2.8-2.7-3.1-4.5C30.8,55.5,30.9,53,32.3,50.9z M32.9,63.6L32.9,63.6L32.9,63.6C32.8,63.6,32.8,63.6,32.9,63.6
			C32.8,63.6,32.9,63.6,32.9,63.6z M22.2,91.4c-0.9,0-1.7-0.1-2.6-0.5c-1.8-0.7-3.2-2-4-3.7c-0.5-1-0.7-2.2-0.6-3.3
			c-0.2-1.2,0-2.4,0.4-3.5c1.1-2.8,3.7-4.5,6.6-4.5c0.8,0,1.7,0.1,2.5,0.5l2.3,0.9l1.7-4.5c0.1-0.2,0.2-0.4,0.3-0.6l-3,1
			c-0.7,0.2-1.5,0.3-2.2,0.3c-3,0-5.9-1.9-6.9-4.8c-0.3-0.8-0.4-1.6-0.3-2.5c-0.3-1.5,0-3,0.7-4.4c0.9-1.7,2.3-2.9,4.1-3.5
			c0.7-0.2,1.4-0.3,2.2-0.3c3,0,5.7,1.9,6.7,4.8l0.8,2.3l4.6-1.5c0.2-0.1,0.5-0.1,0.7-0.1c0,0,0.1,0,0.1,0c0,0,0.1,0,0.1,0
			c1.4,0,2.6,0.9,3.1,2.2l0.2,0.5c0.2,0.3,0.4,0.6,0.5,1l0.4,1.3l-2.8,0.9c-0.1,0-0.1,0.1-0.2,0.1L32.6,71c0,0,0.1,0,0.1,0l1.2,0.5
			l-0.4,1.1l1,0.4l-1.1,2.7c0,0.1,0,0.1-0.1,0.2l-1.9,4.7c0.3-0.4,0.7-0.8,1.1-1.1l1.1-0.7l1.4,2.5c0,0.1,0.1,0.1,0.1,0.2l5.9,10.2
			c0.1,0.2,0.3,0.5,0.4,0.8l0.4,0.7c2,3.3,0.8,7.6-2.6,9.5c-1.1,0.6-2.3,0.9-3.6,0.9c-0.6,0-1.3-0.1-1.9-0.2
			c-1.9-0.5-3.4-1.6-4.4-3.3c-0.4-0.7-0.7-1.4-0.8-2.2c-1.3-3.2-0.1-7,3-8.8l1.9-1.1l-1.7-2.8c-0.1-0.2-0.2-0.5-0.3-0.7
			c0-0.2-0.1-0.3-0.1-0.5l-0.1-0.3c-0.1-0.2-0.2-0.5-0.3-0.7c-0.1-0.5-0.1-1,0-1.4L29,86.9C27.9,89.7,25.1,91.4,22.2,91.4z
			 M25.7,75.7C25.7,75.7,25.8,75.6,25.7,75.7L25.7,75.7L25.7,75.7C25.7,75.7,25.7,75.7,25.7,75.7z M30.9,88.6
			C30.9,88.6,30.9,88.5,30.9,88.6L30.9,88.6L30.9,88.6C30.9,88.6,30.9,88.6,30.9,88.6z M44.5,92.7L44.5,92.7L44.5,92.7L44.5,92.7
			C44.5,92.8,44.5,92.8,44.5,92.7z M61.2,95.4c-0.3,1.8-1.3,3.5-2.9,4.6c-1.2,0.9-2.7,1.3-4.2,1.3c-0.4,0-0.8,0-1.1-0.1
			c-2.4-0.4-4.3-1.8-5.3-3.8c-1.3-1.5-1.9-3.5-1.6-5.6l0.2-1.2L42.5,90c-0.3,0-0.5-0.1-0.8-0.3c-0.9-0.4-1.6-1.3-1.8-2.2
			c-0.6-0.7-0.9-1.6-0.7-2.6l0.2-1.3l2.8,0.4c0.1,0,0.1,0,0.2,0l11.7,1.9c2.1,0.3,3.8,1.5,4.8,3.1C60.7,90.6,61.6,93,61.2,95.4z"/>
		<path class="st3" d="M70.6,71.2c-0.3-0.2-0.5-0.5-0.8-0.7c-1.7-1.3-3.8-2-6-2c-0.3,0-0.7,0-1,0.1c0.5-0.4,1-0.9,1.4-1.4
			C63.6,67,63,67,62.4,67c-0.3,0-0.7,0-1,0.1c2.4-1.9,3.7-5,3.4-8.3c-0.2-1.6-0.7-3-1.5-4.3c-0.2-0.2-0.4-0.3-0.6-0.5
			c-1.7-1.3-3.9-2.1-6.1-2.1c-0.3,0-0.7,0-1,0.1c-3,0.3-5.6,1.9-7.1,4.2c0-0.8-0.1-1.6-0.3-2.4v0c-0.3-1-0.8-2-1.4-2.9
			c-0.7-1-1.6-1.8-2.6-2.5c-1.6-1-3.4-1.5-5.2-1.5c-0.7,0-1.4,0.1-2,0.2c-2.5,0.5-4.7,2-6.1,4.1c-1.4,2.1-1.9,4.6-1.3,7.1
			c0.1,0.3,0.2,0.7,0.3,1c-0.1-0.1-0.3-0.2-0.4-0.3c-1.7-1.1-3.6-1.8-5.6-1.8c-1,0-2,0.2-3,0.5c-2.5,0.8-4.5,2.4-5.6,4.7
			c-0.6,1.2-1,2.4-1,3.7c0.1,0.7,0.2,1.3,0.4,1.9c0.6,1.9,1.8,3.6,3.5,4.7c0.7,0.5,1.4,0.9,2.1,1.1c-0.6,0.1-1.1,0.3-1.7,0.5
			c0.6,0.4,1.2,0.7,1.9,0.9c-1.2,0.3-2.3,0.7-3.3,1.4c-1.7,1.1-2.9,2.6-3.6,4.4c-0.3,0.9-0.5,1.8-0.6,2.6c0.1,1.1,0.3,2.1,0.8,3.1
			c1,2.3,2.9,4.1,5.2,5c1.1,0.4,2.2,0.6,3.4,0.6c1.7,0,3.3-0.4,4.7-1.3c-0.3,0.6-0.6,1.3-0.7,2c0.4-0.2,0.7-0.3,1.1-0.5
			c-0.9,1.8-1.2,3.8-0.9,5.8c0.2,1,0.6,2.1,1.1,3.1c1.3,2.2,3.4,3.7,5.9,4.4c0.8,0.2,1.7,0.3,2.5,0.3c1.7,0,3.4-0.4,4.8-1.3
			c2.6-1.5,4.2-3.9,4.7-6.6c0,0,0-0.1,0-0.1c0.1,0.1,0.1,0.2,0.2,0.3c1.4,2.6,3.9,4.6,7.1,5.1c0.5,0.1,1,0.1,1.5,0.1
			c2,0,4-0.6,5.7-1.8c2.1-1.5,3.5-3.6,3.9-6.1c0.5-3.3-0.7-6.5-3-8.6c-0.4-0.3-0.8-0.6-1.2-0.9c0.2,0.1,0.5,0.2,0.8,0.3
			c1.1,0.4,2.3,0.7,3.6,0.7c2.6,0,5-1,6.8-2.7c1.8-1.8,2.8-4.1,2.8-6.6C73.4,75.3,72.4,73,70.6,71.2z M54.7,52.8c0.2,0,0.5,0,0.7,0
			c1.6,0,3.1,0.5,4.4,1.6c0.6,0.5,1.2,1.1,1.6,1.8c1.3,1.2,2.1,2.7,2.3,4.4c0.4,3.8-2.5,7.3-6.4,7.7l-2.5,0.3l0.5,4.8
			c0,0.1,0,0.2,0,0.2l2.1-2.1c1.4-1.4,3.2-2.1,5-2.1c1.8,0,3.6,0.7,5,2.1c0.3,0.3,0.5,0.6,0.7,0.9c0.3,0.2,0.5,0.4,0.7,0.6
			c1.4,1.3,2.1,3.1,2.1,4.9c0,1.9-0.7,3.6-2.1,4.9c-1.4,1.4-3.2,2-5.1,2c-1.8,0-3.7-0.7-5.1-2L56.9,81l-3.5,3.4
			c-0.2,0.2-0.4,0.3-0.7,0.5c-0.5,0.3-1,0.4-1.6,0.4c-0.8,0-1.7-0.3-2.3-0.9l-1-0.9l0.3-0.3c-0.1-0.1-0.2-0.2-0.3-0.2L46.9,82l2-2
			c0-0.1,0.1-0.1,0.1-0.2l3.1-3.1l-1.1,0.1l-0.2-1.6L50,75.3l-0.3-2.9c0-0.1,0-0.1,0-0.2l-1.2-11.8C48.1,56.6,50.9,53.2,54.7,52.8z
			 M57.6,70.6C57.6,70.6,57.6,70.6,57.6,70.6L57.6,70.6L57.6,70.6C57.6,70.6,57.6,70.6,57.6,70.6z M46.9,61.4L46.9,61.4L46.9,61.4
			C46.9,61.4,46.9,61.4,46.9,61.4C46.9,61.4,46.9,61.4,46.9,61.4z M32.3,50.9c1-1.6,2.6-2.7,4.4-3c0.5-0.1,1-0.2,1.5-0.2
			c1.3,0,2.7,0.4,3.8,1.1c1.3,0.8,2.2,2,2.7,3.4c1.7,2.3,1.8,5.4,0.2,7.9L44,61.4l2.8,1.8c0.2,0.1,0.4,0.3,0.6,0.5
			c0.3,0.4,0.5,0.8,0.7,1.2c0.1,0.1,0.2,0.2,0.3,0.3c0.9,1.1,1.1,2.6,0.3,3.8l-0.7,1.1l-2.5-1.6c-0.1,0-0.1-0.1-0.2-0.1l-10.2-6.4
			c-1.7-1.1-2.8-2.7-3.1-4.5C30.8,55.5,30.9,53,32.3,50.9z M32.9,63.6L32.9,63.6L32.9,63.6C32.8,63.6,32.8,63.6,32.9,63.6
			C32.8,63.6,32.9,63.6,32.9,63.6z M22.2,91.4c-0.9,0-1.7-0.1-2.6-0.5c-1.8-0.7-3.2-2-4-3.7c-0.5-1-0.7-2.2-0.6-3.3
			c-0.2-1.2,0-2.4,0.4-3.5c1.1-2.8,3.7-4.5,6.6-4.5c0.8,0,1.7,0.1,2.5,0.5l2.3,0.9l1.7-4.5c0.1-0.2,0.2-0.4,0.3-0.6l-3,1
			c-0.7,0.2-1.5,0.3-2.2,0.3c-3,0-5.9-1.9-6.9-4.8c-0.3-0.8-0.4-1.6-0.3-2.5c-0.3-1.5,0-3,0.7-4.4c0.9-1.7,2.3-2.9,4.1-3.5
			c0.7-0.2,1.4-0.3,2.2-0.3c3,0,5.7,1.9,6.7,4.8l0.8,2.3l4.6-1.5c0.2-0.1,0.5-0.1,0.7-0.1c0,0,0.1,0,0.1,0c0,0,0.1,0,0.1,0
			c1.4,0,2.6,0.9,3.1,2.2l0.2,0.5c0.2,0.3,0.4,0.6,0.5,1l0.4,1.3l-2.8,0.9c-0.1,0-0.1,0.1-0.2,0.1L32.6,71c0,0,0.1,0,0.1,0l1.2,0.5
			l-0.4,1.1l1,0.4l-1.1,2.7c0,0.1,0,0.1-0.1,0.2l-1.9,4.7c0.3-0.4,0.7-0.8,1.1-1.1l1.1-0.7l1.4,2.5c0,0.1,0.1,0.1,0.1,0.2l5.9,10.2
			c0.1,0.2,0.3,0.5,0.4,0.8l0.4,0.7c2,3.3,0.8,7.6-2.6,9.5c-1.1,0.6-2.3,0.9-3.6,0.9c-0.6,0-1.3-0.1-1.9-0.2
			c-1.9-0.5-3.4-1.6-4.4-3.3c-0.4-0.7-0.7-1.4-0.8-2.2c-1.3-3.2-0.1-7,3-8.8l1.9-1.1l-1.7-2.8c-0.1-0.2-0.2-0.5-0.3-0.7
			c0-0.2-0.1-0.3-0.1-0.5l-0.1-0.3c-0.1-0.2-0.2-0.5-0.3-0.7c-0.1-0.5-0.1-1,0-1.4L29,86.9C27.9,89.7,25.1,91.4,22.2,91.4z
			 M25.7,75.7C25.7,75.7,25.8,75.6,25.7,75.7L25.7,75.7L25.7,75.7C25.7,75.7,25.7,75.7,25.7,75.7z M30.9,88.6
			C30.9,88.6,30.9,88.5,30.9,88.6L30.9,88.6L30.9,88.6C30.9,88.6,30.9,88.6,30.9,88.6z M44.5,92.7L44.5,92.7L44.5,92.7L44.5,92.7
			C44.5,92.8,44.5,92.8,44.5,92.7z M61.2,95.4c-0.3,1.8-1.3,3.5-2.9,4.6c-1.2,0.9-2.7,1.3-4.2,1.3c-0.4,0-0.8,0-1.1-0.1
			c-2.4-0.4-4.3-1.8-5.3-3.8c-1.3-1.5-1.9-3.5-1.6-5.6l0.2-1.2L42.5,90c-0.3,0-0.5-0.1-0.8-0.3c-0.9-0.4-1.6-1.3-1.8-2.2
			c-0.6-0.7-0.9-1.6-0.7-2.6l0.2-1.3l2.8,0.4c0.1,0,0.1,0,0.2,0l11.7,1.9c2.1,0.3,3.8,1.5,4.8,3.1C60.7,90.6,61.6,93,61.2,95.4z"/>
		<g>
			<path class="st3" d="M37.6,94.9l-0.9-1.5l-2.2,1.2c-0.9,0.5-1.3,1.4-1.3,2.3c0.3,0.4,0.8,0.7,1.3,0.8c0.2,0.1,0.4,0.1,0.6,0.1
				c0.4,0,0.8-0.1,1.2-0.3C37.3,96.9,37.7,95.9,37.6,94.9z M35.8,96.7C35.8,96.8,35.8,96.8,35.8,96.7C35.8,96.8,35.8,96.8,35.8,96.7
				C35.7,96.8,35.7,96.8,35.8,96.7c-0.1,0-0.1,0-0.1,0c0,0,0,0,0,0C35.7,96.7,35.7,96.7,35.8,96.7l0-0.1L35.8,96.7
				C35.8,96.7,35.8,96.7,35.8,96.7z"/>
			<path class="st3" d="M23.2,82.1C22.9,82,22.6,82,22.3,82c-1,0-2,0.6-2.4,1.6c-0.1,0.1-0.1,0.3-0.1,0.5c0.3,0.6,0.7,1,1.4,1.3
				c0.3,0.1,0.6,0.2,0.9,0.2c1,0,1.9-0.6,2.3-1.6l0.4-1.1L23.2,82.1z M22.3,84.4C22.3,84.5,22.3,84.5,22.3,84.4
				C22.2,84.5,22.2,84.5,22.3,84.4c-0.1,0-0.1,0-0.1,0c0,0,0,0,0,0C22.2,84.4,22.3,84.4,22.3,84.4C22.3,84.4,22.3,84.4,22.3,84.4
				L22.3,84.4L22.3,84.4z"/>
			<path class="st3" d="M64.8,75.6c-0.3-0.1-0.7-0.2-1-0.2c-0.6,0-1.3,0.2-1.8,0.7l-1.7,1.6l0.4,0.4c0.5,0.5,1.1,0.7,1.7,0.7
				s1.3-0.2,1.7-0.7c0.5-0.5,0.7-1.1,0.7-1.7C64.9,76.1,64.8,75.8,64.8,75.6z M63.8,77.9C63.8,77.9,63.8,77.9,63.8,77.9
				C63.7,77.9,63.7,77.9,63.8,77.9l-0.1,0L63.8,77.9c-0.1-0.1-0.1-0.1,0-0.1C63.8,77.8,63.8,77.8,63.8,77.9
				C63.8,77.8,63.8,77.8,63.8,77.9C63.8,77.9,63.8,77.9,63.8,77.9z"/>
			<path class="st3" d="M26,65.7c-0.3-1-1.3-1.7-2.4-1.7c-0.3,0-0.5,0-0.8,0.1c-0.6,0.2-1.2,0.6-1.5,1.2c-0.1,0.2-0.2,0.5-0.2,0.7
				c0.4,0.8,1.3,1.4,2.2,1.4c0.3,0,0.5,0,0.8-0.1l2.2-0.7L26,65.7z M23.6,66.6C23.6,66.6,23.6,66.6,23.6,66.6
				C23.6,66.6,23.6,66.6,23.6,66.6C23.5,66.5,23.5,66.5,23.6,66.6c-0.1-0.1-0.1-0.1,0-0.1c0,0,0,0,0,0
				C23.6,66.4,23.7,66.4,23.6,66.6L23.6,66.6L23.6,66.6z"/>
			<path class="st3" d="M40.6,54.5c-0.1-0.1-0.2-0.2-0.4-0.3c-0.4-0.3-0.9-0.4-1.4-0.4c-0.2,0-0.4,0-0.5,0.1
				c-0.7,0.1-1.2,0.5-1.6,1.1c-0.3,0.4-0.4,0.9-0.4,1.4c0.1,0.2,0.3,0.3,0.5,0.4l2.1,1.3l1.3-2.1C40.5,55.6,40.6,55,40.6,54.5z
				 M38.9,56.3L38.9,56.3L38.9,56.3c-0.1,0-0.1,0-0.1,0c0,0,0,0,0,0C38.8,56.2,38.8,56.2,38.9,56.3C38.8,56.2,38.8,56.2,38.9,56.3
				C38.8,56.2,38.8,56.2,38.9,56.3C38.9,56.2,38.9,56.2,38.9,56.3C38.9,56.3,38.9,56.3,38.9,56.3z"/>
			<path class="st3" d="M55.4,92.2c-0.3-0.1-0.6-0.3-0.9-0.3L52,91.5l-0.4,2.4c-0.1,0.4,0,0.7,0.1,1c0.3,0.2,0.6,0.3,1,0.4
				c0.1,0,0.3,0,0.4,0c0.5,0,1-0.2,1.4-0.5c0.5-0.4,0.9-1,1-1.6C55.5,92.9,55.5,92.5,55.4,92.2z M54.1,94.3
				C54.1,94.3,54.1,94.3,54.1,94.3C54.1,94.3,54.1,94.3,54.1,94.3c-0.1,0-0.1,0-0.1-0.1l0-0.1l0.1,0C54.1,94.2,54.2,94.3,54.1,94.3
				C54.2,94.3,54.1,94.3,54.1,94.3z"/>
			<path class="st3" d="M57.9,59.5c0-0.1,0-0.2-0.1-0.3c-0.4-0.2-0.8-0.3-1.2-0.3c-0.1,0-0.2,0-0.3,0C55,59,54,60.2,54.1,61.5
				l0.1,0.8l1.5-0.2C57.1,62,58,60.8,57.9,59.5z M56.7,61.3C56.6,61.3,56.6,61.3,56.7,61.3l-0.1,0l0-0.1
				C56.5,61.3,56.5,61.3,56.7,61.3c-0.1-0.1-0.1-0.1-0.1-0.1c0,0,0,0,0,0C56.6,61.2,56.6,61.2,56.7,61.3
				C56.7,61.2,56.7,61.2,56.7,61.3C56.7,61.3,56.7,61.3,56.7,61.3z"/>
		</g>
	</g>
	<g>
		<path class="st4" d="M69.8,70.5c-0.2-0.3-0.5-0.5-0.7-0.8c-1.4-1.4-3.1-2.3-4.9-2.6C63.6,67,63,67,62.4,67c-0.3,0-0.7,0-1,0.1
			c2.4-1.9,3.7-5,3.4-8.3c-0.2-1.6-0.7-3-1.5-4.3c-0.5-0.8-1.1-1.5-1.9-2.1c-1.7-1.4-3.8-2.1-5.9-2.1c-0.3,0-0.7,0-1,0.1
			c-2.6,0.3-4.8,1.6-6.3,3.4v0c-0.2,0.3-0.4,0.5-0.6,0.8c0-1.3-0.3-2.6-0.8-3.8c-0.7-1.6-1.9-3-3.5-4.1c-1.5-1-3.3-1.5-5.1-1.5
			c-0.7,0-1.3,0.1-2,0.2c-2.5,0.5-4.6,2-5.9,4.1c-1.4,2.1-1.8,4.6-1.3,7.1c0.1,0.3,0.2,0.7,0.3,1c-0.1-0.1-0.3-0.2-0.4-0.3
			c-1.6-1.2-3.5-1.8-5.5-1.8c-1,0-2,0.2-2.9,0.5c-2.4,0.8-4.3,2.4-5.5,4.7c-0.8,1.6-1.2,3.5-1,5.2c0.1,0.7,0.2,1.3,0.4,1.9
			c0.6,1.9,1.8,3.6,3.5,4.7c0.7,0.5,1.4,0.9,2.1,1.1c-0.6,0.1-1.1,0.3-1.7,0.5c-0.5,0.2-1.1,0.5-1.6,0.8c-1.6,1.1-2.8,2.6-3.5,4.4
			c-0.5,1.3-0.7,2.7-0.6,4.1c0.1,1.1,0.3,2.1,0.8,3.1c1,2.3,2.9,4.1,5.2,5c1.1,0.4,2.2,0.6,3.4,0.6c1.7,0,3.3-0.4,4.7-1.3
			c-0.3,0.6-0.6,1.3-0.7,2c-0.4,1.7-0.4,3.6,0.2,5.3c0.2,0.6,0.4,1.1,0.8,1.7c1.3,2.2,3.3,3.7,5.7,4.4c0.8,0.2,1.6,0.3,2.4,0.3
			c1.6,0,3.3-0.4,4.7-1.3c2.6-1.5,4.2-4,4.6-6.7c0.2,0.5,0.5,1,0.8,1.5c0.1,0.1,0.1,0.2,0.2,0.3c1.4,1.9,3.5,3.3,6.1,3.7
			c0.5,0.1,1,0.1,1.5,0.1c2,0,3.9-0.6,5.5-1.8c2-1.5,3.4-3.7,3.8-6.1c0.4-2.6-0.2-5.2-1.7-7.2c-0.1-0.2-0.3-0.4-0.5-0.6
			c-0.6-0.7-1.2-1.3-2-1.8c1.3,0.6,2.7,1,4.2,1c2.5,0,4.9-1,6.7-2.8c1.8-1.8,2.8-4.1,2.8-6.7C71.8,74.2,71.1,72.2,69.8,70.5z
			 M62.4,69.3c1.8,0,3.6,0.7,5,2.1c0.3,0.3,0.5,0.6,0.7,0.9c0.9,1.2,1.3,2.6,1.3,4.1c0,1.9-0.7,3.6-2.1,5c-1.4,1.4-3.2,2.1-5,2.1
			c-1.8,0-3.6-0.7-5-2.1l-1.7-1.7L52.3,83c-0.2,0.2-0.4,0.3-0.6,0.5c-0.5,0.3-1,0.4-1.5,0.4c-0.7,0-1.4-0.2-2-0.7
			c-0.1-0.1-0.2-0.2-0.3-0.2L46.9,82l2-2c0-0.1,0.1-0.1,0.1-0.2l3.1-3.1l3.2-3.2l2.1-2.1C58.8,70,60.6,69.3,62.4,69.3z M32.3,62.1
			L32.3,62.1L32.3,62.1C32.3,62.1,32.3,62.1,32.3,62.1C32.3,62.1,32.3,62.1,32.3,62.1z M54.7,52.8c0.2,0,0.5,0,0.7,0
			c1.6,0,3.1,0.5,4.4,1.6c0.6,0.5,1.2,1.1,1.6,1.8c0.5,0.9,0.9,1.8,1,2.9c0.4,3.8-2.4,7.3-6.2,7.7L53.7,67l0.5,4.8
			c0,0.3,0,0.5-0.1,0.8c-0.2,1.4-1.4,2.5-2.8,2.6l-0.5,0.1L50,75.3l-0.3-2.9c0-0.1,0-0.1,0-0.2l-1.2-11.8
			C48.1,56.6,50.9,53.2,54.7,52.8z M56.4,69.1C56.4,69.1,56.4,69.1,56.4,69.1L56.4,69.1L56.4,69.1C56.4,69.1,56.4,69.1,56.4,69.1z
			 M47.3,63.7c0.3,0.4,0.5,0.8,0.7,1.2c0.2,0.9,0.1,1.8-0.4,2.6l-0.7,1.1l-2.4-1.6c-0.1,0-0.1-0.1-0.2-0.1l-9.9-6.4
			c-1.2-0.8-2-1.8-2.6-3c-1-2.1-0.9-4.7,0.5-6.8c1-1.6,2.6-2.7,4.4-3c0.5-0.1,1-0.2,1.5-0.2c1.3,0,2.7,0.4,3.8,1.1
			c1.3,0.8,2.2,2,2.7,3.4c0.8,2,0.6,4.4-0.7,6.3l-1.3,2.1l1.3,0.8l2.8,1.8C47,63.4,47.1,63.5,47.3,63.7z M46,59.8
			C46,59.8,46,59.8,46,59.8C46,59.8,46,59.9,46,59.8L46,59.8L46,59.8z M17.1,61.8c0.9-1.7,2.3-2.9,4.1-3.5c0.7-0.2,1.4-0.3,2.2-0.3
			c3,0,5.7,1.9,6.7,4.8l0.8,2.3l4.6-1.5c0.2-0.1,0.5-0.1,0.7-0.1c0,0,0.1,0,0.1,0c0,0,0.1,0,0.1,0c1.4,0,2.6,0.9,3.1,2.2l0.2,0.5
			l0.2,0.7L37,67.9c-0.1,0-0.1,0.1-0.2,0.1l-11.3,3.7C24.8,71.9,24,72,23.3,72c-3,0-5.7-1.9-6.7-4.8c-0.1-0.3-0.2-0.6-0.2-1
			C16.1,64.7,16.4,63.2,17.1,61.8z M25.5,74.2L25.5,74.2L25.5,74.2C25.4,74.2,25.4,74.2,25.5,74.2C25.4,74.2,25.4,74.2,25.5,74.2z
			 M15.4,80.5c1.1-2.8,3.7-4.5,6.6-4.5c0.8,0,1.7,0.1,2.5,0.5l2.3,0.9l1.7-4.5c0.1-0.2,0.2-0.4,0.3-0.6c0,0,0,0,0.1-0.1
			c0.6-0.8,1.6-1.3,2.6-1.3c0.4,0,0.7,0.1,1.1,0.2c0,0,0.1,0,0.1,0l1.2,0.5l-0.4,1.1l-0.6,1.6c0,0.1,0,0.1-0.1,0.2l-4.2,11
			C27.5,88.3,24.8,90,22,90c-0.8,0-1.7-0.1-2.5-0.5c-1.8-0.7-3.1-2-3.9-3.7c-0.3-0.6-0.4-1.2-0.5-1.8C14.9,82.8,15,81.6,15.4,80.5z
			 M30.5,87.1L30.5,87.1C30.4,87.2,30.4,87.2,30.5,87.1C30.4,87.1,30.4,87.1,30.5,87.1L30.5,87.1z M31.6,89.2l1.9-1.1l0.2-0.1
			l-2.3-3.9l-0.1-0.3c-0.1-0.2-0.2-0.5-0.3-0.7c-0.1-0.5-0.1-1,0-1.4c0.1-0.4,0.2-0.7,0.4-1c0,0,0,0,0,0c0.3-0.4,0.7-0.8,1.1-1.1
			l1.1-0.7l1.4,2.5c0,0.1,0.1,0.1,0.1,0.2l5.9,10.2c0.1,0.2,0.3,0.5,0.4,0.8c1.4,3.2,0.2,7-2.9,8.8c-1.1,0.6-2.3,0.9-3.5,0.9
			c-0.6,0-1.2-0.1-1.8-0.2c-1.8-0.5-3.3-1.6-4.3-3.3c-0.1-0.3-0.3-0.5-0.4-0.8C27.3,94.8,28.5,91,31.6,89.2z M43.7,91.4
			C43.7,91.4,43.7,91.4,43.7,91.4C43.7,91.4,43.7,91.4,43.7,91.4L43.7,91.4L43.7,91.4z M58.9,89.1c0.9,1.4,1.3,3.1,1,4.9
			c-0.3,1.9-1.3,3.5-2.8,4.6c-1.2,0.9-2.6,1.3-4.1,1.3c-0.4,0-0.7,0-1.1-0.1c-1.7-0.3-3.2-1.2-4.3-2.4c-1.3-1.5-1.9-3.5-1.6-5.6
			l0.2-1.2l0.2-1.3l-4.8-0.8c-0.3,0-0.5-0.1-0.7-0.3c-0.4-0.2-0.8-0.5-1.1-0.8c-0.6-0.7-0.9-1.6-0.7-2.6l0.2-1.3l2.8,0.4
			c0.1,0,0.1,0,0.2,0l11.7,1.9C56.2,86.3,57.9,87.5,58.9,89.1z"/>
		<g>
			<path class="st4" d="M37.6,94.9c0-0.3-0.1-0.5-0.3-0.8L36,92l-2.1,1.2c-1.2,0.7-1.6,2.2-0.9,3.4c0.1,0.1,0.1,0.2,0.2,0.3
				c0.3,0.4,0.8,0.7,1.3,0.8c0.2,0.1,0.4,0.1,0.6,0.1c0.4,0,0.8-0.1,1.2-0.3C37.3,96.9,37.7,95.9,37.6,94.9z M35.2,95.3
				C35.2,95.4,35.2,95.4,35.2,95.3C35.2,95.4,35.1,95.4,35.2,95.3C35.1,95.4,35.1,95.4,35.2,95.3c-0.1,0-0.1,0-0.1,0c0,0,0,0,0,0
				C35.1,95.3,35.1,95.3,35.2,95.3l0-0.1L35.2,95.3C35.2,95.3,35.2,95.3,35.2,95.3z"/>
			<path class="st4" d="M22.9,80.7c-0.3-0.1-0.6-0.2-0.9-0.2c-1,0-1.9,0.6-2.3,1.6c-0.2,0.6-0.2,1.3,0,1.9c0,0,0,0,0,0
				c0.3,0.6,0.7,1,1.4,1.3c0.3,0.1,0.6,0.2,0.9,0.2c1,0,1.9-0.6,2.3-1.6l0.4-1.1l0.4-1.2L22.9,80.7z M22.1,83C22,83,22,83,22.1,83
				C22,83,22,83,22.1,83c-0.1,0-0.1,0-0.1,0c0,0,0,0,0,0C22,82.9,22,82.9,22.1,83C22,82.9,22,82.9,22.1,83L22.1,83L22.1,83z"/>
			<path class="st4" d="M64.8,75.6c-0.1-0.4-0.3-0.7-0.6-1c-0.5-0.5-1.1-0.7-1.7-0.7s-1.3,0.2-1.7,0.7L59,76.4l1.4,1.4l0.4,0.4
				c0.5,0.5,1.1,0.7,1.7,0.7s1.3-0.2,1.7-0.7c0.5-0.5,0.7-1.1,0.7-1.7C64.9,76.1,64.8,75.8,64.8,75.6z M62.5,76.4
				C62.5,76.4,62.5,76.4,62.5,76.4C62.4,76.4,62.4,76.4,62.5,76.4l-0.1,0L62.5,76.4c-0.1-0.1-0.1-0.1,0-0.1S62.5,76.3,62.5,76.4
				C62.5,76.3,62.5,76.3,62.5,76.4C62.5,76.4,62.5,76.4,62.5,76.4z"/>
			<path class="st4" d="M25.7,64.2c-0.3-1-1.3-1.7-2.3-1.7c-0.3,0-0.5,0-0.8,0.1c-0.6,0.2-1.1,0.6-1.4,1.2c-0.3,0.6-0.4,1.2-0.1,1.9
				c0,0.1,0.1,0.2,0.1,0.3c0.4,0.8,1.3,1.4,2.2,1.4c0.3,0,0.5,0,0.8-0.1l2.2-0.7l0.1,0L25.7,64.2z M23.3,65C23.3,65,23.3,65,23.3,65
				C23.3,65,23.3,65,23.3,65C23.3,65,23.3,65,23.3,65c-0.1-0.1-0.1-0.1,0-0.1c0,0,0,0,0,0C23.3,64.9,23.4,64.9,23.3,65L23.3,65
				L23.3,65z"/>
			<path class="st4" d="M40.6,54.5c-0.1-0.7-0.4-1.4-1.1-1.9c-0.4-0.3-0.9-0.4-1.3-0.4c-0.2,0-0.3,0-0.5,0.1
				c-0.6,0.1-1.2,0.5-1.5,1.1c-0.6,0.9-0.5,2.2,0.2,3c0.1,0.2,0.3,0.3,0.5,0.4l2.1,1.3l1.3-2.1C40.5,55.6,40.6,55,40.6,54.5z
				 M38.2,54.7L38.2,54.7L38.2,54.7c-0.1,0-0.1,0-0.1,0c0,0,0,0,0,0C38.1,54.6,38.1,54.6,38.2,54.7C38.1,54.6,38.1,54.6,38.2,54.7
				C38.1,54.6,38.2,54.6,38.2,54.7C38.2,54.7,38.2,54.7,38.2,54.7C38.2,54.7,38.2,54.7,38.2,54.7z"/>
			<path class="st4" d="M55.4,92.2c-0.3-0.9-1-1.6-2-1.7L51,90.1l-0.4,2.4c-0.2,1,0.3,1.9,1.1,2.4c0.3,0.2,0.6,0.3,1,0.4
				c0.1,0,0.3,0,0.4,0c0.5,0,1-0.2,1.4-0.5c0.5-0.4,0.9-1,1-1.6C55.5,92.9,55.5,92.5,55.4,92.2z M53,92.9C53,92.9,53,92.9,53,92.9
				C53,92.9,53,92.9,53,92.9C53,92.9,52.9,92.9,53,92.9L53,92.8l0.1,0C53,92.8,53.1,92.9,53,92.9C53.1,92.9,53.1,92.9,53,92.9z"/>
			<path class="st4" d="M57.9,59.5c0-0.1,0-0.2-0.1-0.3c-0.1-0.5-0.4-1-0.8-1.3c-0.4-0.4-1-0.5-1.5-0.5c-0.1,0-0.2,0-0.3,0
				c-1.3,0.1-2.3,1.4-2.2,2.7l0.3,2.4l0.9-0.1l1.5-0.2C57.1,62,58,60.8,57.9,59.5z M55.5,59.8C55.5,59.8,55.5,59.8,55.5,59.8l-0.1,0
				l0-0.1C55.4,59.7,55.4,59.7,55.5,59.8c-0.1-0.1-0.1-0.1-0.1-0.1h0C55.5,59.7,55.5,59.7,55.5,59.8C55.5,59.7,55.5,59.7,55.5,59.8
				C55.5,59.7,55.5,59.8,55.5,59.8z"/>
		</g>
	</g>
</g>
<g>
	<path class="st5" d="M90,106.1c-0.2,0-0.5,0-0.7-0.1c-0.2,0-0.4-0.1-0.5-0.2c-0.2-0.1-0.3-0.2-0.4-0.3c-0.1-0.1-0.2-0.3-0.3-0.5
		c-0.8,0.7-2,1.1-3.6,1.1c-0.9,0-1.7-0.1-2.3-0.3s-1-0.6-1.3-1c-0.1-0.2-0.2-0.4-0.3-0.7c0-0.2-0.1-0.3-0.1-0.5c0-0.1,0-0.2,0-0.3
		c0-0.2,0.1-0.3,0.1-0.6s0.2-0.4,0.3-0.6l0.8,0.5c-0.1,0.1-0.2,0.3-0.2,0.4c-0.1,0.1-0.1,0.3-0.1,0.4c0,0.1,0,0.1,0,0.2
		c0,0.1,0,0.2,0,0.3c0,0.1,0.1,0.2,0.2,0.4c0.1,0.1,0.2,0.3,0.4,0.3s0.4,0.2,0.6,0.2c0.2,0.1,0.5,0.1,0.8,0.1c0.3,0,0.6,0,1,0
		c0.3,0,0.6,0,0.9,0s0.5-0.1,0.8-0.1s0.5-0.1,0.7-0.2c0.2-0.1,0.4-0.2,0.5-0.3c0.1-0.1,0.2-0.2,0.3-0.3c0.1-0.1,0.1-0.3,0.2-0.4
		c0.1-0.1,0.1-0.3,0.1-0.4c0-0.2,0.1-0.3,0.1-0.4l1,0.3c-0.1,0.2-0.1,0.3-0.1,0.5c0,0.1,0,0.3,0,0.4c0,0,0,0.1,0,0.1
		c0,0.1,0,0.2,0.1,0.3c0,0.1,0.1,0.2,0.2,0.3c0.1,0.1,0.2,0.2,0.4,0.2c0.1,0.1,0.3,0.1,0.5,0.1h0.2v1.1H90z M82.8,107.6l0.7-0.7
		l0.7,0.7l-0.7,0.7L82.8,107.6z M85,108.9l-0.7,0.7l-0.7-0.7l0.7-0.7L85,108.9z M84.4,107.6l0.7-0.7l0.7,0.7l-0.7,0.7L84.4,107.6z"
		/>
	<path class="st5" d="M90.1,105c0.2,0,0.4,0,0.6-0.1c0.2-0.1,0.3-0.2,0.4-0.3c0.1-0.1,0.2-0.3,0.3-0.4c0.1-0.2,0.2-0.3,0.3-0.5
		c0.1-0.2,0.2-0.3,0.3-0.5c0.1-0.2,0.2-0.3,0.3-0.4s0.3-0.2,0.4-0.3c0.2-0.1,0.3-0.1,0.5-0.1c0.2,0,0.4,0,0.5,0.1s0.3,0.1,0.4,0.2
		c0.1,0.1,0.2,0.2,0.3,0.3s0.2,0.3,0.2,0.4c0.1,0.2,0.1,0.3,0.1,0.5c0,0.2,0,0.3,0,0.5c0,0.1,0,0.3,0,0.4c0,0.1-0.1,0.3-0.1,0.4
		c-0.1,0.1-0.1,0.3-0.2,0.4c-0.1,0.1-0.2,0.2-0.3,0.3s-0.2,0.1-0.4,0.2c-0.1,0-0.3,0.1-0.4,0.1c-0.1,0-0.3,0-0.4,0s-0.3-0.1-0.4-0.1
		c-0.1,0-0.1-0.1-0.2-0.1c-0.1,0-0.2-0.1-0.2-0.1c-0.1,0-0.2-0.1-0.2-0.1c-0.1,0-0.1-0.1-0.2-0.1c-0.2,0.2-0.5,0.4-0.7,0.5
		c-0.3,0.1-0.6,0.2-0.9,0.2H90L90.1,105L90.1,105z M92.4,104.5c0.1,0.1,0.2,0.1,0.3,0.2s0.2,0.1,0.4,0.2c0.1,0.1,0.3,0.1,0.4,0.1
		c0.1,0,0.1,0,0.2,0c0,0,0.1,0,0.1,0c0,0,0.1,0,0.1-0.1c0,0,0.1-0.1,0.1-0.1c0-0.1,0-0.1,0.1-0.2c0-0.1,0-0.1,0-0.2c0,0,0,0,0,0
		c0-0.1,0-0.3-0.1-0.4s-0.1-0.2-0.2-0.3c-0.1-0.1-0.2-0.2-0.3-0.2c-0.1,0-0.2-0.1-0.2-0.1c0,0-0.1,0-0.1,0c0,0-0.1,0-0.1,0.1
		c0,0-0.1,0.1-0.1,0.2c-0.1,0.1-0.1,0.2-0.2,0.3C92.6,104.1,92.5,104.3,92.4,104.5z"/>
	<path class="st5" d="M100.5,105.5c-0.2,0-0.3,0-0.5,0s-0.3-0.1-0.4-0.1c-0.1,0-0.3-0.1-0.4-0.2c-0.1-0.1-0.2-0.2-0.3-0.3
		c-0.1-0.1-0.2-0.2-0.2-0.4c-0.1-0.1-0.1-0.3-0.1-0.5c0-0.2,0-0.4,0.1-0.5c0.1-0.2,0.1-0.3,0.3-0.5s0.2-0.3,0.4-0.4
		c0.1-0.1,0.3-0.2,0.4-0.3c0.2-0.1,0.3-0.2,0.5-0.3c0.2-0.1,0.3-0.1,0.5-0.2l-0.1-0.7l1.1-0.2c0,0,0,0.1,0,0.2c0,0.1,0,0.2,0,0.3
		c0,0.1,0,0.3,0,0.4c0,0.1,0,0.3,0,0.4c0,0.1,0,0.2,0,0.3c0,0.1,0,0.1,0,0.2c0,0.4,0.1,0.7,0.1,0.9s0.1,0.4,0.1,0.6s0,0.2,0.1,0.3
		s0,0.1,0,0.1c0,0.1,0.1,0.1,0.1,0.2c0,0,0.1,0.1,0.1,0.1c0,0,0.1,0,0.2,0.1c0.1,0,0.1,0,0.2,0h0.1v1.1h-0.1c-0.2,0-0.3,0-0.4,0
		s-0.3,0-0.4-0.1c-0.1,0-0.2-0.1-0.4-0.2s-0.2-0.2-0.3-0.4c-0.2,0-0.3,0-0.5,0.1C100.8,105.5,100.7,105.5,100.5,105.5z M101,104.4
		c0-0.1,0-0.2,0-0.3c0-0.1,0-0.2,0-0.3c0-0.1,0-0.3,0-0.4c0-0.1,0-0.3-0.1-0.4c-0.1,0-0.2,0.1-0.3,0.1c-0.1,0-0.2,0.1-0.3,0.2
		c-0.1,0.1-0.2,0.1-0.3,0.2c-0.1,0.1-0.2,0.1-0.3,0.2c-0.1,0.1-0.1,0.1-0.2,0.2s-0.1,0.1-0.1,0.2c0,0.1,0,0.1,0.1,0.2
		s0.1,0.1,0.2,0.1c0.1,0,0.2,0,0.3,0.1c0.1,0,0.2,0,0.3,0c0.1,0,0.2,0,0.3,0C100.9,104.4,101,104.4,101,104.4z"/>
	<path class="st5" d="M103,105c0.1,0,0.3,0,0.4-0.1c0.1-0.1,0.3-0.2,0.4-0.3s0.2-0.4,0.3-0.6c0.1-0.3,0.2-0.6,0.3-1l1.1,0.3
		c-0.1,0.2-0.1,0.5-0.2,0.7c-0.1,0.2-0.1,0.4-0.1,0.6c0,0,0,0,0,0c0,0.1,0,0.1,0,0.2c0,0.1,0,0.1,0.1,0.2c0,0,0.1,0.1,0.1,0.1
		c0,0,0.1,0,0.1,0c0,0,0,0,0,0c0.1,0,0.2,0,0.3-0.1s0.2-0.2,0.3-0.3c0.1-0.1,0.2-0.3,0.2-0.4c0.1-0.2,0.1-0.3,0.2-0.5
		s0.1-0.3,0.1-0.5c0-0.1,0.1-0.3,0.1-0.4l1,0.2c0,0.2-0.1,0.3-0.1,0.5s0,0.3,0,0.4c0,0,0,0.1,0,0.1c0,0.1,0,0.2,0,0.3
		c0,0.1,0,0.2,0.1,0.3c0,0.1,0.1,0.2,0.2,0.2c0.1,0.1,0.2,0.1,0.3,0.1c0.1,0,0.2,0,0.3-0.1c0.1-0.1,0.1-0.2,0.2-0.4
		c0-0.2,0.1-0.3,0.1-0.5c0-0.2,0-0.4,0-0.5c0-0.1,0-0.1,0-0.1c0,0,0-0.1,0-0.1s0-0.1,0-0.1c0,0,0-0.1,0-0.2l1.1-0.1
		c0,0.1,0,0.2,0,0.3c0,0.1,0,0.2,0,0.3c0,0.1,0,0.2,0,0.3c0,0.1,0,0.2,0,0.4c0,0.2,0.1,0.3,0.1,0.4s0.1,0.2,0.2,0.3
		c0.1,0.1,0.2,0.1,0.3,0.2c0.1,0,0.2,0.1,0.3,0.1h0.2v1.1h-0.1c-0.1,0-0.3,0-0.4,0s-0.3-0.1-0.4-0.1s-0.2-0.1-0.3-0.2
		c-0.1-0.1-0.2-0.2-0.3-0.3c-0.1,0.2-0.3,0.4-0.5,0.5c-0.2,0.1-0.5,0.2-0.7,0.2s-0.5-0.1-0.7-0.2c-0.2-0.1-0.4-0.3-0.5-0.5
		c-0.1,0.1-0.2,0.2-0.3,0.3c-0.1,0.1-0.2,0.2-0.3,0.2c-0.1,0.1-0.2,0.1-0.4,0.2c-0.1,0-0.3,0.1-0.4,0.1c-0.1,0-0.3,0-0.4,0
		c-0.1,0-0.2-0.1-0.3-0.1c-0.1-0.1-0.2-0.1-0.3-0.2c-0.1-0.1-0.2-0.2-0.2-0.3c-0.1,0.3-0.3,0.4-0.5,0.6c-0.2,0.1-0.5,0.2-0.8,0.2
		h-0.2V105H103z M107.2,101.3l-0.7,0.7l-0.7-0.7l0.7-0.7L107.2,101.3z M106.6,100l0.7-0.7l0.7,0.7l-0.7,0.7L106.6,100z M108.8,101.3
		l-0.7,0.7l-0.7-0.7l0.7-0.7L108.8,101.3z"/>
	<path class="st5" d="M110.9,105L110.9,105c0.3,0,0.5,0,0.7,0c0.2,0,0.3,0,0.5,0c-0.1,0-0.1-0.1-0.2-0.2c-0.1-0.1-0.1-0.2-0.2-0.3
		c-0.1-0.1-0.1-0.2-0.2-0.3s-0.1-0.3-0.1-0.4c0,0,0-0.1,0-0.1c0-0.1,0-0.3,0-0.4s0.1-0.3,0.2-0.5s0.2-0.3,0.3-0.4s0.2-0.3,0.4-0.4
		c0.1-0.1,0.3-0.2,0.4-0.2c0.1,0,0.3-0.1,0.4-0.1c0,0,0,0,0,0c0.2,0,0.5,0.1,0.7,0.2s0.4,0.3,0.5,0.4c0.1,0.2,0.3,0.4,0.3,0.6
		c0.1,0.2,0.1,0.5,0.1,0.7c0,0.2,0,0.4-0.1,0.7c-0.1,0.2-0.2,0.4-0.3,0.6c0.1,0,0.3,0,0.5,0.1c0.2,0,0.3,0,0.5,0h0.1v1.1h-0.1
		c-0.2,0-0.4,0-0.6,0c-0.2,0-0.4,0-0.6,0c-0.2,0-0.4-0.1-0.5-0.1c-0.2,0-0.3-0.1-0.4-0.2c-0.1,0.1-0.2,0.1-0.4,0.2
		c-0.2,0-0.3,0.1-0.5,0.1s-0.4,0.1-0.6,0.1s-0.4,0-0.6,0h-0.1V105z M113,100.4l-0.7,0.7l-0.7-0.7l0.7-0.7L113,100.4z M113.1,102.9
		c-0.1,0-0.2,0-0.3,0.1c-0.1,0-0.2,0.1-0.3,0.2c-0.1,0.1-0.2,0.2-0.2,0.3c-0.1,0.1-0.1,0.3-0.1,0.4c0,0.1,0,0.1,0.1,0.2
		c0,0.1,0.1,0.2,0.2,0.2c0.1,0.1,0.2,0.2,0.3,0.2c0.1,0.1,0.2,0.1,0.3,0.1c0.1,0,0.2-0.1,0.3-0.2c0.1-0.1,0.2-0.1,0.2-0.2
		c0.1-0.1,0.1-0.2,0.2-0.3c0-0.1,0.1-0.2,0.1-0.3c0-0.1,0-0.2-0.1-0.3s-0.1-0.2-0.2-0.3s-0.2-0.1-0.2-0.2
		C113.3,102.9,113.2,102.9,113.1,102.9z M114.7,100.4l-0.7,0.7l-0.7-0.7l0.7-0.7L114.7,100.4z"/>
	<path class="st5" d="M115.2,105h0.7c0.1,0,0.3,0,0.4,0c0.1,0,0.3,0,0.4-0.1s0.2-0.1,0.3-0.2c0.1-0.1,0.1-0.2,0.1-0.4
		c0-0.1,0-0.2,0-0.3c0-0.1-0.1-0.3-0.1-0.5c-0.1-0.2-0.1-0.3-0.2-0.5c-0.1-0.2-0.1-0.3-0.2-0.5l1-0.5c0.1,0.2,0.1,0.3,0.2,0.5
		c0.1,0.2,0.1,0.4,0.2,0.6c0.1,0.2,0.1,0.4,0.1,0.6c0,0.2,0.1,0.4,0.1,0.6c0,0.3-0.1,0.6-0.2,0.8c-0.1,0.2-0.3,0.4-0.5,0.6
		s-0.4,0.3-0.7,0.3c-0.3,0.1-0.6,0.1-0.9,0.1h-0.7V105z M117.4,100.5l-0.8,0.8l-0.8-0.8l0.8-0.8L117.4,100.5z"/>
	<path class="st5" d="M123.8,105.5c-0.2,0-0.3,0-0.5,0s-0.3-0.1-0.4-0.1c-0.1,0-0.3-0.1-0.4-0.2c-0.1-0.1-0.2-0.2-0.3-0.3
		c-0.1-0.1-0.2-0.2-0.2-0.4c-0.1-0.1-0.1-0.3-0.1-0.5c0-0.2,0-0.4,0.1-0.5c0.1-0.2,0.1-0.3,0.3-0.5s0.2-0.3,0.4-0.4
		c0.1-0.1,0.3-0.2,0.4-0.3c0.2-0.1,0.3-0.2,0.5-0.3c0.2-0.1,0.3-0.1,0.5-0.2l-0.1-0.7l1.1-0.2c0,0,0,0.1,0,0.2c0,0.1,0,0.2,0,0.3
		c0,0.1,0,0.3,0,0.4c0,0.1,0,0.3,0,0.4c0,0.1,0,0.2,0,0.3c0,0.1,0,0.1,0,0.2c0,0.4,0.1,0.7,0.1,0.9s0.1,0.4,0.1,0.6s0,0.2,0.1,0.3
		s0,0.1,0,0.1c0,0.1,0.1,0.1,0.1,0.2c0,0,0.1,0.1,0.1,0.1c0,0,0.1,0,0.2,0.1c0.1,0,0.1,0,0.2,0h0.1v1.1h-0.1c-0.2,0-0.3,0-0.4,0
		s-0.3,0-0.4-0.1c-0.1,0-0.2-0.1-0.4-0.2s-0.2-0.2-0.3-0.4c-0.2,0-0.3,0-0.5,0.1C124.1,105.5,124,105.5,123.8,105.5z M124.3,104.4
		c0-0.1,0-0.2,0-0.3c0-0.1,0-0.2,0-0.3c0-0.1,0-0.3,0-0.4c0-0.1,0-0.3-0.1-0.4c-0.1,0-0.2,0.1-0.3,0.1c-0.1,0-0.2,0.1-0.3,0.2
		c-0.1,0.1-0.2,0.1-0.3,0.2c-0.1,0.1-0.2,0.1-0.3,0.2c-0.1,0.1-0.1,0.1-0.2,0.2s-0.1,0.1-0.1,0.2c0,0.1,0,0.1,0.1,0.2
		s0.1,0.1,0.2,0.1c0.1,0,0.2,0,0.3,0.1c0.1,0,0.2,0,0.3,0c0.1,0,0.2,0,0.3,0C124.2,104.4,124.3,104.4,124.3,104.4z"/>
	<path class="st5" d="M126.1,105h0.9c0.4,0,0.7,0,1.1-0.1c0.4-0.1,0.7-0.2,1.1-0.3s0.7-0.2,1.1-0.4c0.4-0.1,0.7-0.3,1-0.4
		c-0.2-0.1-0.5-0.1-0.7-0.2c-0.2-0.1-0.4-0.2-0.6-0.3s-0.4-0.2-0.6-0.2c-0.2-0.1-0.4-0.1-0.5-0.1c-0.1,0-0.2,0-0.3,0.1
		s-0.2,0.1-0.2,0.1c-0.1,0.1-0.1,0.1-0.2,0.2c-0.1,0.1-0.1,0.1-0.2,0.2c0,0.1-0.1,0.1-0.1,0.2c0,0,0,0.1-0.1,0.1l-0.9-0.6
		c0.1-0.2,0.2-0.3,0.4-0.5c0.1-0.2,0.3-0.3,0.5-0.4s0.3-0.2,0.5-0.3c0.2-0.1,0.4-0.1,0.6-0.1c0.2,0,0.4,0,0.7,0.1
		c0.2,0.1,0.4,0.1,0.7,0.2c0.2,0.1,0.4,0.2,0.7,0.3c0.2,0.1,0.4,0.2,0.7,0.3c0.2,0.1,0.4,0.2,0.7,0.2c0.2,0.1,0.5,0.1,0.7,0.1
		l-0.1,1.1c-0.4,0.2-0.8,0.4-1.3,0.6c-0.4,0.2-0.9,0.4-1.4,0.6c-0.5,0.2-1,0.3-1.5,0.5s-1.1,0.2-1.6,0.2h-0.9V105z M128.2,107.6
		l0.7-0.7l0.7,0.7l-0.7,0.7L128.2,107.6z M130.4,108.9l-0.7,0.7l-0.7-0.7l0.7-0.7L130.4,108.9z M129.8,107.6l0.7-0.7l0.7,0.7
		l-0.7,0.7L129.8,107.6z"/>
	<path class="st5" d="M135.5,103.2c0.1,0.2,0.1,0.4,0.2,0.6c0.1,0.2,0.1,0.4,0.2,0.6s0.1,0.4,0.1,0.6c0,0.2,0,0.4,0,0.6
		c0,0.3,0,0.5-0.1,0.8c-0.1,0.2-0.2,0.5-0.3,0.7s-0.3,0.5-0.5,0.7c-0.2,0.2-0.4,0.4-0.6,0.6c-0.2,0.2-0.5,0.4-0.7,0.5
		s-0.5,0.3-0.8,0.4l-0.5-1c0.2-0.1,0.4-0.2,0.6-0.3s0.4-0.3,0.6-0.4c0.2-0.1,0.3-0.3,0.5-0.4c0.2-0.2,0.3-0.3,0.4-0.5
		c0.1-0.2,0.2-0.3,0.3-0.5s0.1-0.3,0.1-0.5c0-0.2,0-0.3-0.1-0.5s-0.1-0.4-0.1-0.5c-0.1-0.2-0.1-0.4-0.2-0.5
		c-0.1-0.2-0.1-0.3-0.1-0.4L135.5,103.2z"/>
	<path class="st5" d="M139.1,106.1h-0.2c-0.6,0-1-0.1-1.3-0.4c-0.3-0.3-0.5-0.7-0.5-1.3c0-0.1,0-0.2,0-0.5c0-0.2,0-0.5,0-0.8
		c0-0.2,0-0.4,0-0.6s0-0.4,0-0.6s0-0.4,0-0.7c0-0.2,0-0.4,0-0.6c0-0.2,0-0.4-0.1-0.6c0-0.2,0-0.3-0.1-0.5l1.1-0.3
		c0,0.2,0.1,0.4,0.1,0.6c0,0.2,0,0.5,0.1,0.8c0,0.3,0,0.6,0,0.8c0,0.3,0,0.6,0,0.8c0,0.2,0,0.3,0,0.5c0,0.2,0,0.3,0,0.5
		c0,0.1,0,0.2,0,0.3c0,0.1,0,0.2,0,0.3c0,0.1,0,0.2,0,0.3c0,0.1,0,0.2,0,0.3c0,0,0,0,0,0.1c0,0.1,0,0.2,0,0.3s0.1,0.1,0.1,0.2
		s0.1,0.1,0.2,0.1c0.1,0,0.2,0,0.3,0h0.2V106.1z"/>
	<path class="st5" d="M142.8,105v1.1h-0.1c-0.3,0-0.5,0-0.7-0.1s-0.4-0.2-0.5-0.3c-0.1,0.1-0.2,0.2-0.4,0.3
		c-0.2,0.1-0.4,0.1-0.6,0.1c-0.2,0-0.5,0-0.7,0.1c-0.2,0-0.5,0-0.7,0h-0.2V105h0.2c0.3,0,0.6,0,0.9-0.1c0.2,0,0.4-0.1,0.6-0.2
		s0.2-0.2,0.3-0.3c0.1-0.1,0.1-0.2,0.1-0.4c0-0.1,0-0.2-0.1-0.4c0-0.2-0.1-0.4-0.2-0.6l1.1-0.3c0,0.1,0.1,0.2,0.1,0.3
		c0,0.1,0,0.2,0.1,0.3c0,0.1,0,0.2,0,0.3c0,0.1,0,0.2,0,0.4c0,0.1,0,0.2,0.1,0.3c0,0.1,0.1,0.2,0.1,0.3c0.1,0.1,0.1,0.2,0.2,0.2
		C142.5,105,142.6,105,142.8,105L142.8,105z M139.1,107.6l0.7-0.7l0.7,0.7l-0.7,0.7L139.1,107.6z M141.4,108.9l-0.7,0.7l-0.7-0.7
		l0.7-0.7L141.4,108.9z M140.8,107.6l0.7-0.7l0.7,0.7l-0.7,0.7L140.8,107.6z"/>
	<path class="st5" d="M142.7,105h1.4c0.2,0,0.3,0,0.5-0.1c0.1,0,0.2-0.1,0.3-0.2s0.2-0.1,0.2-0.2c0.1-0.1,0.1-0.2,0.1-0.3
		c0-0.1,0-0.3-0.1-0.5s-0.1-0.3-0.2-0.5c-0.1-0.2-0.2-0.3-0.3-0.5c-0.1-0.2-0.3-0.3-0.4-0.5c-0.1-0.2-0.3-0.3-0.4-0.4
		c-0.1-0.1-0.3-0.3-0.4-0.4l0.1-1.2l3.8-1.6l0.4,1l-3.3,1.3c0.2,0.2,0.4,0.4,0.6,0.6c0.2,0.2,0.3,0.4,0.4,0.6
		c0.1,0.2,0.3,0.4,0.4,0.6s0.2,0.4,0.3,0.6c0.1,0.1,0.1,0.3,0.2,0.4c0.1,0.1,0.2,0.3,0.2,0.4v0c0.1,0.1,0.2,0.2,0.3,0.4
		c0.1,0.1,0.2,0.2,0.3,0.3c0.1,0.1,0.2,0.1,0.3,0.2c0.1,0,0.3,0.1,0.4,0.1h0.3v1.1h-0.1c-0.2,0-0.4,0-0.6,0c-0.2,0-0.4-0.1-0.5-0.2
		s-0.3-0.2-0.5-0.3s-0.3-0.2-0.4-0.4c-0.1,0.2-0.2,0.3-0.3,0.4s-0.3,0.2-0.4,0.3c-0.1,0.1-0.3,0.1-0.5,0.2c-0.2,0-0.3,0.1-0.5,0.1
		h-1.5V105z"/>
	<path class="st5" d="M147.8,105h0.9c0.1,0,0.3,0,0.4,0c0.2,0,0.3,0,0.4-0.1s0.2-0.1,0.3-0.2c0.1-0.1,0.1-0.2,0.1-0.4
		c0-0.1,0-0.2,0-0.3c0-0.1-0.1-0.3-0.1-0.5c-0.1-0.2-0.1-0.3-0.2-0.5s-0.1-0.3-0.2-0.5l1-0.5c0.1,0.2,0.1,0.3,0.2,0.5
		s0.1,0.4,0.2,0.6s0.1,0.4,0.1,0.6c0,0.2,0.1,0.4,0.1,0.6c0,0.3-0.1,0.6-0.2,0.9c-0.1,0.2-0.3,0.4-0.5,0.6s-0.5,0.3-0.8,0.3
		c-0.3,0.1-0.6,0.1-0.9,0.1h-0.9V105z M149.4,107.4l-0.7,0.7l-0.7-0.7l0.7-0.7L149.4,107.4z M151.1,107.4l-0.7,0.7l-0.7-0.7l0.7-0.7
		L151.1,107.4z"/>
	<path class="st5" d="M164.6,106.1c-0.2,0-0.5,0-0.7-0.1c-0.2,0-0.4-0.1-0.5-0.2c-0.2-0.1-0.3-0.2-0.4-0.3c-0.1-0.1-0.2-0.3-0.3-0.5
		c-0.8,0.7-2,1.1-3.6,1.1c-0.9,0-1.7-0.1-2.3-0.3s-1-0.6-1.3-1c-0.1-0.2-0.2-0.4-0.3-0.7c0-0.2-0.1-0.3-0.1-0.5c0-0.1,0-0.2,0-0.3
		c0-0.2,0.1-0.3,0.1-0.6s0.2-0.4,0.3-0.6l0.8,0.5c-0.1,0.1-0.2,0.3-0.2,0.4c-0.1,0.1-0.1,0.3-0.1,0.4c0,0.1,0,0.1,0,0.2
		c0,0.1,0,0.2,0,0.3c0,0.1,0.1,0.2,0.2,0.4c0.1,0.1,0.2,0.3,0.4,0.3s0.4,0.2,0.6,0.2c0.2,0.1,0.5,0.1,0.8,0.1c0.3,0,0.6,0,1,0
		c0.3,0,0.6,0,0.9,0s0.5-0.1,0.8-0.1s0.5-0.1,0.7-0.2c0.2-0.1,0.4-0.2,0.5-0.3c0.1-0.1,0.2-0.2,0.3-0.3c0.1-0.1,0.1-0.3,0.2-0.4
		c0.1-0.1,0.1-0.3,0.1-0.4c0-0.2,0.1-0.3,0.1-0.4l1,0.3c-0.1,0.2-0.1,0.3-0.1,0.5c0,0.1,0,0.3,0,0.4c0,0,0,0.1,0,0.1
		c0,0.1,0,0.2,0.1,0.3c0,0.1,0.1,0.2,0.2,0.3c0.1,0.1,0.2,0.2,0.4,0.2c0.1,0.1,0.3,0.1,0.5,0.1h0.2v1.1H164.6z M159.3,101.7
		l-0.7,0.7l-0.7-0.7l0.7-0.7L159.3,101.7z M161,101.7l-0.7,0.7l-0.7-0.7l0.7-0.7L161,101.7z"/>
	<path class="st5" d="M164.6,105h0.9c0.4,0,0.7,0,1.1-0.1c0.4-0.1,0.7-0.2,1.1-0.3s0.7-0.2,1.1-0.4c0.4-0.1,0.7-0.3,1-0.4
		c-0.2-0.1-0.5-0.1-0.7-0.2c-0.2-0.1-0.4-0.2-0.6-0.3s-0.4-0.2-0.6-0.2c-0.2-0.1-0.4-0.1-0.5-0.1c-0.1,0-0.2,0-0.3,0.1
		s-0.2,0.1-0.2,0.1c-0.1,0.1-0.1,0.1-0.2,0.2c-0.1,0.1-0.1,0.1-0.2,0.2c0,0.1-0.1,0.1-0.1,0.2c0,0,0,0.1-0.1,0.1l-0.9-0.6
		c0.1-0.2,0.2-0.3,0.4-0.5c0.1-0.2,0.3-0.3,0.5-0.4s0.3-0.2,0.5-0.3c0.2-0.1,0.4-0.1,0.6-0.1c0.2,0,0.4,0,0.7,0.1
		c0.2,0.1,0.4,0.1,0.7,0.2c0.2,0.1,0.4,0.2,0.7,0.3c0.2,0.1,0.4,0.2,0.7,0.3c0.2,0.1,0.4,0.2,0.7,0.2c0.2,0.1,0.5,0.1,0.7,0.1
		l-0.1,1.1c-0.4,0.2-0.8,0.4-1.3,0.6c-0.4,0.2-0.9,0.4-1.4,0.6c-0.5,0.2-1,0.3-1.5,0.5s-1.1,0.2-1.6,0.2h-0.9V105z M168.2,100.5
		l-0.8,0.8l-0.8-0.8l0.8-0.8L168.2,100.5z"/>
	<path class="st5" d="M174.3,106.1h-0.2c-0.6,0-1-0.1-1.3-0.4c-0.3-0.3-0.5-0.7-0.5-1.3c0-0.1,0-0.2,0-0.5c0-0.2,0-0.5,0-0.8
		c0-0.2,0-0.4,0-0.6s0-0.4,0-0.6s0-0.4,0-0.7c0-0.2,0-0.4,0-0.6c0-0.2,0-0.4-0.1-0.6c0-0.2,0-0.3-0.1-0.5l1.1-0.3
		c0,0.2,0.1,0.4,0.1,0.6c0,0.2,0,0.5,0.1,0.8c0,0.3,0,0.6,0,0.8c0,0.3,0,0.6,0,0.8c0,0.2,0,0.3,0,0.5c0,0.2,0,0.3,0,0.5
		c0,0.1,0,0.2,0,0.3c0,0.1,0,0.2,0,0.3c0,0.1,0,0.2,0,0.3c0,0.1,0,0.2,0,0.3c0,0,0,0,0,0.1c0,0.1,0,0.2,0,0.3s0.1,0.1,0.1,0.2
		s0.1,0.1,0.2,0.1c0.1,0,0.2,0,0.3,0h0.2V106.1z"/>
	<path class="st5" d="M174.3,105c0.2,0,0.3,0,0.4-0.1c0.1-0.1,0.2-0.2,0.3-0.3c0.1-0.1,0.2-0.2,0.3-0.4c0.1-0.1,0.1-0.3,0.2-0.5
		c0.1-0.2,0.1-0.3,0.1-0.5c0-0.2,0.1-0.3,0.1-0.4l1.1,0.2c0,0.1-0.1,0.2-0.1,0.3c0,0.1-0.1,0.3-0.1,0.4s-0.1,0.3-0.1,0.4
		c0,0.1,0,0.2,0,0.3c0,0,0,0.1,0,0.2c0,0.1,0,0.1,0.1,0.2c0.1,0.1,0.1,0.1,0.3,0.1c0.1,0,0.2,0,0.4-0.1c0.1-0.1,0.2-0.2,0.3-0.3
		c0.1-0.1,0.2-0.3,0.2-0.4c0.1-0.2,0.1-0.3,0.2-0.5c0-0.2,0.1-0.3,0.1-0.5c0-0.2,0.1-0.3,0.1-0.4l1,0.2c0,0.1,0,0.2,0,0.2
		c0,0.1,0,0.2,0,0.3c0,0.1,0,0.2,0,0.3c0,0.1,0,0.2,0,0.4c0,0,0,0,0,0.1c0,0.1,0,0.1,0,0.2c0,0.1,0,0.1,0.1,0.2
		c0,0.1,0.1,0.1,0.2,0.2s0.2,0.1,0.3,0.1c0.2,0,0.4-0.1,0.5-0.2c0.1-0.1,0.2-0.3,0.2-0.5c0-0.2,0-0.3-0.1-0.5s-0.1-0.4-0.2-0.5
		s-0.1-0.3-0.2-0.5c-0.1-0.2-0.1-0.3-0.2-0.4l0.9-0.5c0,0,0,0.1,0.1,0.2s0.1,0.2,0.1,0.3s0.1,0.3,0.2,0.4c0.1,0.2,0.1,0.3,0.1,0.5
		c0,0.2,0.1,0.3,0.1,0.5s0,0.4,0,0.5c0,0.3,0,0.5-0.1,0.7c-0.1,0.2-0.2,0.4-0.4,0.6c-0.2,0.2-0.4,0.3-0.6,0.4
		c-0.2,0.1-0.5,0.1-0.8,0.1c0,0,0,0,0,0c0,0,0,0,0,0c-0.1,0-0.3,0-0.4-0.1c-0.1,0-0.2-0.1-0.3-0.2c-0.1-0.1-0.2-0.1-0.3-0.2
		s-0.1-0.2-0.2-0.3c-0.1,0.1-0.1,0.2-0.2,0.3c-0.1,0.1-0.2,0.2-0.3,0.2c-0.1,0.1-0.2,0.1-0.3,0.1s-0.3,0.1-0.4,0.1c0,0,0,0,0,0
		c-0.1,0-0.3,0-0.4-0.1c-0.1,0-0.2-0.1-0.3-0.1c-0.1-0.1-0.2-0.1-0.3-0.2c-0.1-0.1-0.1-0.2-0.2-0.3c-0.1,0.1-0.1,0.2-0.2,0.2
		c-0.1,0.1-0.2,0.1-0.3,0.2c-0.1,0.1-0.2,0.1-0.4,0.1c-0.2,0-0.3,0.1-0.5,0.1h-0.2V105H174.3z"/>
	<path class="st5" d="M185.1,106.1H185c-0.1,0-0.2,0-0.3,0s-0.2-0.1-0.4-0.2c0,0.4-0.1,0.7-0.3,1s-0.4,0.6-0.7,0.9
		c-0.3,0.3-0.6,0.6-0.9,0.8c-0.3,0.2-0.7,0.5-1.1,0.6l-0.5-1c0.2-0.1,0.4-0.2,0.6-0.3c0.2-0.1,0.4-0.3,0.6-0.4
		c0.2-0.1,0.4-0.3,0.5-0.4s0.3-0.3,0.4-0.5c0.1-0.2,0.2-0.3,0.3-0.5c0.1-0.2,0.1-0.4,0.1-0.5c0-0.1,0-0.3-0.1-0.4
		c0-0.2-0.1-0.3-0.1-0.5c-0.1-0.2-0.1-0.3-0.2-0.5s-0.1-0.3-0.2-0.5l1-0.4c0.1,0.3,0.2,0.6,0.3,0.8c0.1,0.2,0.2,0.4,0.3,0.5
		c0.1,0.1,0.2,0.2,0.3,0.3c0.1,0.1,0.2,0.1,0.3,0.1h0.1L185.1,106.1z"/>
	<path class="st5" d="M184.9,105h0.9c0.1,0,0.3,0,0.4,0c0.2,0,0.3,0,0.4-0.1s0.2-0.1,0.3-0.2c0.1-0.1,0.1-0.2,0.1-0.4
		c0-0.1,0-0.2,0-0.3c0-0.1-0.1-0.3-0.1-0.5c-0.1-0.2-0.1-0.3-0.2-0.5s-0.1-0.3-0.2-0.5l1-0.5c0.1,0.2,0.1,0.3,0.2,0.5
		s0.1,0.4,0.2,0.6s0.1,0.4,0.1,0.6c0,0.2,0.1,0.4,0.1,0.6c0,0.3-0.1,0.6-0.2,0.9c-0.1,0.2-0.3,0.4-0.5,0.6s-0.5,0.3-0.8,0.3
		c-0.3,0.1-0.6,0.1-0.9,0.1h-0.9V105z M186.5,107.4l-0.7,0.7l-0.7-0.7l0.7-0.7L186.5,107.4z M188.2,107.4l-0.7,0.7l-0.7-0.7l0.7-0.7
		L188.2,107.4z"/>
	<path class="st5" d="M191.7,103.2c0.1,0.2,0.1,0.4,0.2,0.6c0.1,0.2,0.1,0.4,0.2,0.6s0.1,0.4,0.1,0.6c0,0.2,0,0.4,0,0.6
		c0,0.3,0,0.5-0.1,0.8c-0.1,0.2-0.2,0.5-0.3,0.7s-0.3,0.5-0.5,0.7c-0.2,0.2-0.4,0.4-0.6,0.6c-0.2,0.2-0.5,0.4-0.7,0.5
		s-0.5,0.3-0.8,0.4l-0.5-1c0.2-0.1,0.4-0.2,0.6-0.3s0.4-0.3,0.6-0.4c0.2-0.1,0.3-0.3,0.5-0.4c0.2-0.2,0.3-0.3,0.4-0.5
		c0.1-0.2,0.2-0.3,0.3-0.5s0.1-0.3,0.1-0.5c0-0.2,0-0.3-0.1-0.5s-0.1-0.4-0.1-0.5c-0.1-0.2-0.1-0.4-0.2-0.5
		c-0.1-0.2-0.1-0.3-0.1-0.4L191.7,103.2z M191.9,101.4l-0.8,0.8l-0.8-0.8l0.8-0.8L191.9,101.4z"/>
</g>
</svg>
